<svg xmlns="http://www.w3.org/2000/svg" xmlns:xlink="http://www.w3.org/1999/xlink" width="27" height="27" viewBox="0 0 24 24" fill="none">
<path   fill-rule="evenodd"  fill="#000000"  d="M6 3.5L6 20.5C6 21.33 6.67 22 7.5 22L16.51 22C17.34 22 18.01 21.33 18.01 20.5L18.01 3.5C18.01 2.67 17.34 2 16.51 2L7.5 2C6.67 2 6 2.67 6 3.5ZM7 3.5L7 20.5C7 20.78 7.22 21 7.5 21L16.51 21C16.79 21 17.01 20.78 17.01 20.5L17.01 3.5C17.01 3.22 16.79 3 16.51 3L7.5 3C7.22 3 7 3.22 7 3.5ZM14 19.5C14 19.78 13.78 20 13.5 20L10.5 20C10.22 20 10 19.78 10 19.5C10 19.22 10.22 19 10.5 19L13.5 19C13.78 19 14 19.22 14 19.5Z">
</path>
</svg>
