<svg xmlns="http://www.w3.org/2000/svg" xmlns:xlink="http://www.w3.org/1999/xlink" width="27.720703125" height="28.287109375" viewBox="0 0 27.720703125 28.287109375" fill="none">
<path d="M27.72 14.4651C27.72 13.4621 27.63 12.4978 27.4629 11.572L14.1429 11.572L14.1429 17.0431L21.7543 17.0431C21.4264 18.811 20.43 20.3089 18.9321 21.3119L18.9321 24.8606L23.5029 24.8606C26.1771 22.3983 27.72 18.7724 27.72 14.4651ZM14.1433 28.287C17.9618 28.287 21.1629 27.0207 23.5029 24.8606L18.9321 21.3119C17.6657 22.1605 16.0461 22.6617 14.1433 22.6617C10.4597 22.6617 7.34183 20.1737 6.22969 16.8307L1.50469 16.8307L1.50469 20.4952C3.83183 25.1176 8.61469 28.287 14.1433 28.287ZM6.22969 16.8307C5.94683 15.9821 5.78571 15.076 5.78571 14.1438C5.78571 13.2116 5.94643 12.3051 6.22929 11.4565L6.22929 7.79205L1.50429 7.79205C0.514286 9.76297 -0.000872519 11.9382 1.1093e-06 14.1438C1.1093e-06 16.4261 0.54683 18.5858 1.50469 20.4952L6.22969 16.8307ZM14.1433 5.6253C16.2197 5.6253 18.084 6.33891 19.5497 7.74042L23.6061 3.68377C21.1568 1.4015 17.9554 0 14.1433 0C8.61469 0 3.83143 3.16966 1.50429 7.79205L6.22929 11.4565C7.34143 8.11349 10.4597 5.6253 14.1433 5.6253Z" fill-rule="evenodd"  fill="#EA4335" >
</path>
</svg>
